<svg xmlns="http://www.w3.org/2000/svg" viewBox="0 0 96 96" fill="none" role="img" aria-label="Soil pH">
  <defs>
    <linearGradient id="phTube" x1="48" y1="18" x2="48" y2="78" gradientUnits="userSpaceOnUse">
      <stop offset="0" stop-color="#FDE68A"/>
      <stop offset="0.45" stop-color="#86EFAC"/>
      <stop offset="1" stop-color="#60A5FA"/>
    </linearGradient>
    <linearGradient id="phGlass" x1="48" y1="14" x2="48" y2="82" gradientUnits="userSpaceOnUse">
      <stop offset="0" stop-color="#FFFFFF" stop-opacity="0.95"/>
      <stop offset="1" stop-color="#F8FAFC" stop-opacity="0.85"/>
    </linearGradient>
    <linearGradient id="phSoil" x1="48" y1="68" x2="48" y2="88" gradientUnits="userSpaceOnUse">
      <stop offset="0" stop-color="#A16207"/>
      <stop offset="1" stop-color="#713F12"/>
    </linearGradient>
    <filter id="phShadow" x="-20%" y="-20%" width="140%" height="140%">
      <feDropShadow dx="0" dy="2" stdDeviation="2" flood-color="#92400E" flood-opacity="0.18"/>
    </filter>
  </defs>
  <ellipse cx="48" cy="82" rx="28" ry="6" fill="#78350F" opacity="0.18"/>
  <path d="M18 72C18 66 24 62 48 62C72 62 78 66 78 72V84C78 88 72 90 48 90C24 90 18 88 18 84V72Z" fill="url(#phSoil)"/>
  <path d="M20 72C20 68 28 65 48 65C68 65 76 68 76 72" stroke="#FDE68A" stroke-width="2" stroke-linecap="round" opacity="0.55"/>
  <g filter="url(#phShadow)">
    <rect x="36" y="14" width="24" height="52" rx="10" fill="url(#phGlass)" stroke="#F59E0B" stroke-width="2.5"/>
    <rect x="40" y="24" width="16" height="34" rx="6" fill="url(#phTube)"/>
    <rect x="42" y="30" width="12" height="4" rx="2" fill="#FFFFFF" opacity="0.45"/>
    <path d="M48 10L42 18H54L48 10Z" fill="#F59E0B"/>
    <circle cx="48" cy="41" r="11" fill="#FFFFFF" stroke="#D97706" stroke-width="2"/>
    <text x="48" y="45.5" text-anchor="middle" font-family="Inter,Segoe UI,Arial,sans-serif" font-size="11" font-weight="800" fill="#B45309">pH</text>
  </g>
</svg>
